<svg id="Icons_-_Filled_-_Popular_Logos" data-name="Icons - Filled - Popular Logos" xmlns="http://www.w3.org/2000/svg" width="24" height="24" viewBox="0 0 24 24">
  <rect id="Rectangle_4" data-name="Rectangle 4" width="24" height="24" fill="#14142b" opacity="0"/>
  <g id="Instagram" transform="translate(0.014 0.005)">
    <path id="Path_625" data-name="Path 625" d="M12,2.161c3.206,0,3.586.014,4.847.07a6.574,6.574,0,0,1,2.226.412,3.711,3.711,0,0,1,1.378.9,3.692,3.692,0,0,1,.9,1.378,6.605,6.605,0,0,1,.412,2.227c.056,1.266.07,1.645.07,4.847s-.014,3.586-.07,4.847a6.578,6.578,0,0,1-.412,2.227,3.955,3.955,0,0,1-2.274,2.273,6.6,6.6,0,0,1-2.226.413c-1.266.056-1.645.07-4.847.07s-3.586-.014-4.847-.07a6.575,6.575,0,0,1-2.227-.413,3.711,3.711,0,0,1-1.378-.9,3.691,3.691,0,0,1-.9-1.378,6.6,6.6,0,0,1-.413-2.227c-.056-1.266-.07-1.645-.07-4.847s.014-3.586.07-4.847a6.575,6.575,0,0,1,.413-2.227,3.711,3.711,0,0,1,.9-1.378,3.691,3.691,0,0,1,1.378-.9,6.6,6.6,0,0,1,2.227-.412C8.414,2.175,8.794,2.161,12,2.161ZM12,0C8.742,0,8.334.014,7.055.07A8.768,8.768,0,0,0,4.144.628,5.857,5.857,0,0,0,2.016,2.016,5.88,5.88,0,0,0,.628,4.139,8.794,8.794,0,0,0,.07,7.05C.014,8.334,0,8.742,0,12s.014,3.666.07,4.945a8.769,8.769,0,0,0,.558,2.911,5.857,5.857,0,0,0,1.388,2.128,5.866,5.866,0,0,0,2.123,1.383,8.8,8.8,0,0,0,2.911.558C8.33,23.981,8.738,24,12,24s3.666-.014,4.945-.07a8.77,8.77,0,0,0,2.911-.558,6.13,6.13,0,0,0,3.506-3.506,8.792,8.792,0,0,0,.558-2.911c.056-1.28.07-1.688.07-4.945s-.014-3.666-.07-4.945a8.767,8.767,0,0,0-.558-2.911,5.621,5.621,0,0,0-1.373-2.133A5.866,5.866,0,0,0,19.861.633,8.793,8.793,0,0,0,16.95.075C15.666.014,15.258,0,12,0Z" fill="#14142b"/>
    <path id="Path_626" data-name="Path 626" d="M12,5.836A6.164,6.164,0,1,0,18.164,12,6.166,6.166,0,0,0,12,5.836ZM12,16a4,4,0,1,1,4-4A4,4,0,0,1,12,16Z" fill="#14142b"/>
    <path id="Path_627" data-name="Path 627" d="M19.847,5.592a1.439,1.439,0,1,1-1.439-1.439A1.439,1.439,0,0,1,19.847,5.592Z" fill="#14142b"/>
  </g>
</svg>
