<svg id="Icons_-_Filled_-_Popular_Logos" data-name="Icons - Filled - Popular Logos" xmlns="http://www.w3.org/2000/svg" width="24" height="24" viewBox="0 0 24 24">
  <rect id="Rectangle_4" data-name="Rectangle 4" width="24" height="24" fill="#14142b" opacity="0"/>
  <path id="Telegram" d="M24,12A12,12,0,1,1,12,0,12,12,0,0,1,24,12ZM13.075,8.566,4.994,11.9c-1.422.555-.59,1.075-.59,1.075s1.214.416,2.254.728a2.037,2.037,0,0,0,1.6-.035l4.89-3.295c1.734-1.179,1.318-.208.9.208-.9.9-2.393,2.324-3.642,3.468a.657.657,0,0,0-.035,1.11c.706.6,2.368,1.683,3.123,2.177.21.137.35.228.38.251a2.853,2.853,0,0,0,1.734.624c.59-.139.659-.936.659-.936l.867-5.445c.077-.51.154-1.01.226-1.476.187-1.212.339-2.2.364-2.547.1-1.179-1.145-.694-1.145-.694S13.873,8.22,13.075,8.566Z" fill="#14142b" fill-rule="evenodd"/>
</svg>
