<svg id="Icons_-_Filled_-_Popular_Logos" data-name="Icons - Filled - Popular Logos" xmlns="http://www.w3.org/2000/svg" xmlns:xlink="http://www.w3.org/1999/xlink" width="24" height="24" viewBox="0 0 24 24">
  <defs>
    <clipPath id="clip-path">
      <rect id="Rectangle_89" data-name="Rectangle 89" width="24" height="24" fill="#fff"/>
    </clipPath>
  </defs>
  <rect id="Rectangle_4" data-name="Rectangle 4" width="24" height="24" fill="#14142b" opacity="0"/>
  <g id="Twitter" clip-path="url(#clip-path)">
    <path id="Path_624" data-name="Path 624" d="M7.55,21.75A13.914,13.914,0,0,0,21.558,7.742c0-.211,0-.427-.014-.638A10,10,0,0,0,24,4.556a9.709,9.709,0,0,1-2.826.773,4.951,4.951,0,0,0,2.165-2.723A9.9,9.9,0,0,1,20.213,3.8a4.93,4.93,0,0,0-8.394,4.49A13.985,13.985,0,0,1,6.2,6.8,13.985,13.985,0,0,1,1.673,3.15,4.929,4.929,0,0,0,3.2,9.72,4.93,4.93,0,0,1,.966,9.106v.061A4.922,4.922,0,0,0,4.916,14a4.894,4.894,0,0,1-2.221.084,4.934,4.934,0,0,0,4.6,3.422A9.875,9.875,0,0,1,0,19.539,13.969,13.969,0,0,0,7.55,21.75Z" fill="#14142b"/>
  </g>
</svg>
