<svg id="Icons_-_Filled_-_Popular_Logos" data-name="Icons - Filled - Popular Logos" xmlns="http://www.w3.org/2000/svg" width="24" height="24" viewBox="0 0 24 24">
  <rect id="Rectangle_4" data-name="Rectangle 4" width="24" height="24" fill="#14142b" opacity="0"/>
  <path id="YouTube" d="M23.761,7.2A5.168,5.168,0,0,0,22.8,4.819,3.436,3.436,0,0,0,20.4,3.8c-3.356-.244-8.4-.244-8.4-.244H12s-5.039,0-8.4.244A3.436,3.436,0,0,0,1.2,4.819,5.142,5.142,0,0,0,.244,7.2,35.835,35.835,0,0,0,0,11.086V12.9A36.526,36.526,0,0,0,.239,16.79a5.2,5.2,0,0,0,.952,2.381A4.092,4.092,0,0,0,3.839,20.2c1.922.183,8.161.239,8.161.239s5.044-.009,8.4-.248a3.437,3.437,0,0,0,2.4-1.017,5.168,5.168,0,0,0,.956-2.381A36.4,36.4,0,0,0,24,12.9V11.086A36.521,36.521,0,0,0,23.761,7.2ZM9.52,15.112V8.367L16,11.751Z" transform="translate(0 0.002)" fill="#14142b"/>
</svg>
